<?xml version="1.0" encoding="UTF-8" standalone="no"?>
<!-- Generator: Adobe Illustrator 16.0.3, SVG Export Plug-In . SVG Version: 6.00 Build 0)  -->

<svg
   xmlns:dc="http://purl.org/dc/elements/1.1/"
   xmlns:cc="http://creativecommons.org/ns#"
   xmlns:rdf="http://www.w3.org/1999/02/22-rdf-syntax-ns#"
   xmlns:svg="http://www.w3.org/2000/svg"
   xmlns="http://www.w3.org/2000/svg"
   xmlns:sodipodi="http://sodipodi.sourceforge.net/DTD/sodipodi-0.dtd"
   xmlns:inkscape="http://www.inkscape.org/namespaces/inkscape"
   version="1.1"
   x="0px"
   y="0px"
   width="3810.304px"
   height="1115.776px"
   viewBox="0 0 3810.304 1115.776"
   enable-background="new 0 0 3810.304 1115.776"
   xml:space="preserve"
   id="svg2"
   inkscape:version="0.91 r13725"
   sodipodi:docname="trailing wrenchman.svg"
   inkscape:export-filename="/media/removable/SD Card/Downloads/trailing wrenchman.png"
   inkscape:export-xdpi="9"
   inkscape:export-ydpi="9"><metadata
     id="metadata54"><rdf:RDF><cc:Work
         rdf:about=""><dc:format>image/svg+xml</dc:format><dc:type
           rdf:resource="http://purl.org/dc/dcmitype/StillImage" /></cc:Work></rdf:RDF></metadata><defs
     id="defs52" /><sodipodi:namedview
     pagecolor="#ffffff"
     bordercolor="#666666"
     borderopacity="1"
     objecttolerance="10"
     gridtolerance="10"
     guidetolerance="10"
     inkscape:pageopacity="0"
     inkscape:pageshadow="2"
     inkscape:window-width="1920"
     inkscape:window-height="1016"
     id="namedview50"
     showgrid="false"
     inkscape:zoom="0.35587712"
     inkscape:cx="1239.182"
     inkscape:cy="783.26506"
     inkscape:window-x="0"
     inkscape:window-y="27"
     inkscape:window-maximized="1"
     inkscape:current-layer="svg2" /><g
     id="Wrenchman"><path
       id="Top"
       fill="#FFFFFF"
       d="M3625.625,292.78c-10.127,0-28.203,7.143-28.203,7.143   c-18.877,11.415-46.797,13.887-46.797,13.887h-711.592c0,0-3.094-0.138-6.564-1.874c-3.471-1.735-42.807-38.468-69.127-38.468   s-78.674,39.625-78.674,55.822c0,0-0.867,9.545,9.545,9.545c10.413,0,45.7-5.495,52.208-6.652s23.429,9.256,22.56,31.671   c-0.867,22.416-12.107,24.684-12.107,24.684s-49.644,6.173-53.838,6.652c-4.193,0.479-9.641,3.615-9.641,9.64   c0,6.024,28.875,30.32,67.055,31.188c29.473,0.67,61.137-20.865,74.043-30.719c3.813-2.91,20.103-4.803,20.103-4.803h697.478   c0,0,27.92,2.472,46.795,13.887c0,0,17.203,5.865,26.758,5.865c35.199,0,63.734-28.535,63.734-63.734   C3689.359,321.315,3660.824,292.78,3625.625,292.78z M3625.625,399.797c-23.904,0-43.283-19.378-43.283-43.283   c0-23.904,19.379-43.283,43.283-43.283s43.281,19.378,43.281,43.283C3668.906,380.419,3649.529,399.797,3625.625,399.797z" /><path
       id="BL-TR"
       fill="#FFFFFF"
       d="M3354.945,197.468c-5.063,8.77-7.915,27.996-7.915,27.996   c0.448,22.054-11.371,47.47-11.371,47.47L2979.863,889.19c0,0-1.668,2.611-4.905,4.748c-3.239,2.139-54.718,17.838-67.878,40.633   s-5.02,87.945,9.008,96.043c0,0,7.832,5.523,13.038-3.494s18.091-42.324,20.342-48.539c2.253-6.213,19.729-15.66,38.708-3.701   c18.979,11.959,15.323,22.826,15.323,22.826s-19.477,46.08-21.157,49.953c-1.682,3.871-1.689,10.156,3.527,13.168   c5.219,3.012,40.695-9.846,60.537-42.477c15.317-25.189,12.5-63.379,10.418-79.482c-0.614-4.758,5.893-19.811,5.893-19.811   l348.738-604.034c0,0,16.102-22.943,35.424-33.582c0,0,13.682-11.965,18.459-20.239c17.6-30.483,7.154-69.463-23.328-87.063   C3411.525,156.54,3372.545,166.984,3354.945,197.468z M3447.625,250.977c-11.951,20.702-38.422,27.795-59.125,15.842   c-20.701-11.953-27.794-38.424-15.842-59.125c11.952-20.702,38.424-27.795,59.125-15.843S3459.578,230.275,3447.625,250.977z" /><path
       id="TL-BR_1_"
       fill="#FFFFFF"
       d="M2932.304,174.14c-30.482,17.6-40.928,56.58-23.328,87.063   c4.777,8.274,18.459,20.239,18.459,20.239c19.322,10.639,35.424,33.582,35.424,33.582l348.738,604.034   c0,0,6.507,15.053,5.893,19.811c-2.082,16.104-4.898,54.293,10.418,79.482c19.841,32.631,55.318,45.488,60.537,42.477   c5.217-3.012,5.209-9.297,3.527-13.168c-1.682-3.873-21.157-49.953-21.157-49.953s-3.655-10.867,15.323-22.826   s36.455-2.512,38.707,3.701c2.253,6.215,15.137,39.521,20.344,48.539c5.205,9.018,13.038,3.494,13.038,3.494   c14.026-8.098,22.167-73.248,9.007-96.043s-64.639-38.494-67.877-40.633c-3.239-2.137-4.906-4.748-4.906-4.748l-355.796-616.256   c0,0-11.819-25.416-11.371-47.47c0,0-2.853-19.227-7.916-27.996C3001.768,166.984,2962.789,156.54,2932.304,174.14z    M2942.531,191.851c20.701-11.952,47.174-4.859,59.125,15.843c11.953,20.702,4.859,47.173-15.842,59.125   c-20.703,11.953-47.174,4.859-59.127-15.842C2914.736,230.275,2921.83,203.803,2942.531,191.851z" /><path
       id="Head"
       fill="#FFFFFF"
       d="M3186.964,54.524l-90.176,52.063v104.125l90.176,52.063l90.174-52.063V106.586L3186.964,54.524z    M3186.964,202.034c-23.962,0-43.387-19.424-43.387-43.385s19.425-43.385,43.387-43.385c23.961,0,43.385,19.424,43.385,43.385   S3210.925,202.034,3186.964,202.034z" /></g><g
     id="Text"
     display="none"><text
       id="BRP"
       transform="matrix(1 0 0 1 141.1821 1271.4014)"><tspan
         x="0"
         y="0"
         display="inline"
         font-family="'BankGothicBT-Light'"
         font-size="167.781"
         letter-spacing="-23"
         id="tspan16">Blair</tspan><tspan
         x="352.841"
         y="0"
         display="inline"
         font-family="'BankGothicBT-Light'"
         font-size="61.3833"
         letter-spacing="-8"
         id="tspan18" /><tspan
         x="367.084"
         y="0"
         display="inline"
         fill="#FF0000"
         font-family="'BankGothicBT-Light'"
         font-size="167.781"
         letter-spacing="-23"
         id="tspan20">Robot</tspan><tspan
         x="801.44"
         y="0"
         display="inline"
         fill="#FF0000"
         font-family="'BankGothicBT-Light'"
         font-size="61.3833"
         letter-spacing="-8"
         id="tspan22" /><tspan
         x="815.683"
         y="0"
         display="inline"
         font-family="'BankGothicBT-Light'"
         font-size="167.781"
         letter-spacing="-23"
         id="tspan24">Project</tspan></text>
<text
       id="BRPdark_2_"
       transform="matrix(1 0 0 1 1053.1821 247.4014)"
       display="inline"><tspan
         x="0"
         y="0"
         font-family="'BankGothicBT-Light'"
         font-size="167.781"
         letter-spacing="-23"
         id="tspan27">Blair</tspan><tspan
         x="352.841"
         y="0"
         font-family="'BankGothicBT-Light'"
         font-size="61.3833"
         letter-spacing="-8"
         id="tspan29" /><tspan
         x="367.084"
         y="0"
         fill="#A7000A"
         font-family="'BankGothicBT-Light'"
         font-size="167.781"
         letter-spacing="-23"
         id="tspan31">Robot</tspan><tspan
         x="801.44"
         y="0"
         fill="#A7000A"
         font-family="'BankGothicBT-Light'"
         font-size="61.3833"
         letter-spacing="-8"
         id="tspan33" /><tspan
         x="815.683"
         y="0"
         font-family="'BankGothicBT-Light'"
         font-size="167.781"
         letter-spacing="-23"
         id="tspan35">Project</tspan></text>
<text
       id="THE"
       transform="matrix(1 0 0 1 467.5464 1154.0732)"
       fill="#FF0000"
       font-family="'BankGothicBT-Light'"
       font-size="85.5"
       letter-spacing="-12">THE</text>
<text
       id="THE_dark_2_"
       transform="matrix(1 0 0 1 1379.5464 130.0732)"
       display="inline"
       fill="#A7000A"
       font-family="'BankGothicBT-Light'"
       font-size="85.5"
       letter-spacing="-12">THE</text>
<text
       transform="matrix(0.5 0.866 -0.866 0.5 1843.187 848.3145)"
       display="inline"
       font-family="'BankGothicBT-Light'"
       font-size="164.0007"
       letter-spacing="-16"
       id="text39">4/49</text>
</g><g
     id="Big_449"><g
       id="g42"><path
         fill="#FFFFFF"
         d="M550.185,917.815v-159h-506v-83l482.391-434h126.609v434h153v83h-153v159H550.185z M550.185,675.815    V322.159L161.826,675.815H550.185z"
         id="path44" /><path
         fill="#FFFFFF"
         d="M1454.854,917.815v-159h-506v-83l482.391-434h126.609v434h153v83h-153v159H1454.854z M1454.854,675.815    V322.159l-388.359,353.657H1454.854z"
         id="path46" /><path
         fill="#FFFFFF"
         d="M1969.335,842.3c1.688,0.422,4,0.625,6.969,0.625c15.219,1.266,26.219,1.891,32.984,1.891    c131.906,0,232.203-16.203,300.906-48.609s107.922-82.063,117.641-148.969c-48.156,9.313-97.156,16.406-147,21.281    s-100.313,7.297-151.406,7.297c-103.063,0-173.813-12.672-212.25-38.031c-38.438-25.36-57.656-70.579-57.656-135.672v-89.875    c0-55.734,17.391-96.906,52.188-123.516c34.781-26.594,89.078-39.906,162.891-39.906h265.094    c79.266,0,133.547,14.672,162.859,44.016s43.969,83.5,43.969,162.438v87.984c0,124.5-40.344,220.719-121,288.657    c-80.672,67.938-194.703,101.906-342.094,101.906c-12.672,0-22.063-0.109-28.188-0.313c-6.125-0.234-11.938-0.766-17.422-1.609    L1969.335,842.3z M2436.71,564.127c1.266-8.016,2.219-15.609,2.859-22.781c0.625-7.172,0.953-13.5,0.953-18.984    c0-89.875-6.984-142.922-20.938-159.172s-53.688-24.375-119.219-24.375h-203.563c-52,0-86.891,7.078-104.641,21.203    c-17.766,14.141-26.641,41.469-26.641,81.969v43.031c0,40.516,10.984,67.938,32.969,82.281s63.844,21.516,125.578,21.516    c56.641,0,111.172-2.109,163.609-6.328C2340.101,578.268,2389.773,572.159,2436.71,564.127z"
         id="path48" /></g></g></svg>